<svg width="640" height="480" xmlns="http://www.w3.org/2000/svg"  ><g class="layer"><g fill="none" stroke="#000" stroke-dasharray="null" stroke-linecap="null" stroke-linejoin="null" stroke-opacity="null"><path d="m88.217 109.113 76.435 193.006M88.241 109.168l.501-72.57M88.742 36.598 128.285 13.2M128.157 13.322l7.26 63.191M88.742 36.598l46.546 39.536M135.288 76.263 88.492 109.04M135.288 76.012l50.552-17.768M128.285 13.322l57.806 45.044M185.84 58.366l-18.269 49.679M135.288 76.263l32.655 32.276M167.7 108.167l74.945 50.301M167.821 108.54l8.506 147.521M167.571 108.045l-79.33.995M88.37 109.29l87.835 147.022M242.523 158.34l-65.946 97.721M164.445 302.107l11.882-46.168M176.577 255.94l21.152 101.597M164.567 301.606l.88 68.571M165.446 369.927l19.143-75.202M184.46 293.1l71.325-63.063M255.657 230.288l-13.134-72.198M242.645 158.34 185.84 57.865M165.446 369.927l25.023 43.542M190.469 413.347l7.26-56.683M190.347 413.096l46.79-62.312M237.015 351.035l-39.036 5.88M237.015 351.035l26.903-58.564M197.85 356.664l66.19-64.193M263.912 292.545l-8.243-62.746M236.997 351.083l3.2 105.128M190.572 413.151l10.094 35.159M200.666 448.139l39.695 8.072M240.361 456.211l28.259-13.793M268.455 442.588l86.797.171M268.284 442.418l42.223-52.31M310.507 390.272l44.574 52.487M310.336 390.272l.507-31.593M310.77 358.704l37.418-34.03M310.764 358.68l-37.644-35.165M273.4 323.661l37.571 11.602M310.904 335.263l37.216-10.686M273.193 323.661l-35.732 26.53M273.26 323.588l14.508-27.807M287.695 295.781l-23.63-2.974M334.18 295.854l14.008 28.796M334.18 295.995l22.501-3.395M356.467 292.6l-45.917-18.966M310.69 273.708l-46.839 18.678M310.654 390.528l74.28-40.055M310.654 390.528l-73.505-39.67M287.707 296.025l23.142-2.723M334.571 296.025l-23.917-2.723M310.85 273.854l-.392-123.678M310.654 150.372l55.027 79.53M310.654 150.567l-55.034 79.727M242.785 158.542l68.064-8.17M310.85 150.567l67.666 8.945M378.516 159.708l-12.835 70.006M365.877 229.518l-9.33 63.198M356.547 292.716l28.002 57.952M348.377 324.608l36.172 26.25M384.738 351.053l-4.274 104.425M380.66 455.478l-25.866-12.835M380.66 455.478l40.446-7.779M420.91 447.7l9.721-35.391M430.827 412.7l-46.089-61.843M384.934 350.668l38.7 6.222M423.634 357.086l6.808 55.613M431.022 412.7l25.084-43.366M456.497 369.53l-20.419-74.286M436.273 295.439 423.83 356.89M423.83 356.89l-67.094-64.37M456.692 369.334l-.195-69.23M456.887 300.495l-12.835-43.945M436.469 295.83l7.779-39.476M456.887 300.104l76.228-190.57M444.443 256.739l88.672-147.01M444.443 256.934l-65.927-97.617M444.633 256.55l8.365-148.182M453.193 108.76l-74.481 50.948M453.193 108.76l79.922.97M533.31 109.73V37.392M533.506 37.392l-48.036 39.28M485.47 76.476l47.84 33.254M453.193 108.76l32.668-32.284M485.86 76.476l-50.362-17.89M435.883 58.586l17.31 50.173M435.883 58.586l-57.367 101.122M485.86 76.476l6.809-62.422M492.858 14.25l-56.975 44.336M533.31 37.392l-40.452-23.338M436.45 295.323l-70.677-65.756" stroke-width=".6106"/></g></g></svg>